<svg width="323" height="512.53" xmlns="http://www.w3.org/2000/svg" clip-rule="evenodd" fill-rule="evenodd" image-rendering="optimizeQuality" text-rendering="geometricPrecision" shape-rendering="geometricPrecision">

 <g>
  <title>Layer 1</title>
  <path fill="white" id="svg_1" d="m71.94,168.03l139.24,0.02c12,-0.05 11.88,19.83 0,19.83l-139.24,0c-12.02,0 -11.89,-19.85 0,-19.85zm102.75,322.39c7.81,-1.03 13.98,6.6 11.33,14.02c-1.38,3.76 -4.59,6.41 -8.57,6.94c-9.19,1.17 -18.43,1.45 -27.68,0.83c-34.03,-2.29 -64.64,-17.04 -87.33,-39.73c-24.73,-24.73 -40.04,-58.9 -40.04,-96.66c0,-37.73 15.31,-71.91 40.04,-96.65c24.74,-24.73 58.92,-40.04 96.66,-40.04c13.09,0 25.83,1.88 38,5.4c10.09,2.91 19.68,6.95 28.64,11.95l-2.7,-7.04c-2.25,-5.91 0.72,-12.52 6.63,-14.78c5.9,-2.25 12.53,0.71 14.77,6.63l11.39,29.79c0.44,1.17 0.68,2.37 0.74,3.54c0.9,5.56 -2.43,11.06 -7.96,12.74l-30.5,9.33c-6.04,1.83 -12.42,-1.58 -14.25,-7.61c-1.82,-6.03 1.59,-12.41 7.62,-14.24l2.51,-0.77c-7.17,-3.89 -14.79,-7.02 -22.75,-9.32c-10.11,-2.92 -20.89,-4.48 -32.14,-4.48c-31.91,0 -60.81,12.93 -81.72,33.84c-20.92,20.91 -33.85,49.81 -33.85,81.71c0,31.92 12.93,60.81 33.85,81.73c18.96,18.95 44.46,31.35 72.82,33.5c8.12,0.63 16.46,0.42 24.49,-0.63zm-36.51,-170.19c0,-5.83 4.72,-10.57 10.56,-10.57c5.84,0 10.55,4.74 10.55,10.57l0,64.31l44.02,19.34c5.33,2.35 7.75,8.58 5.41,13.91c-2.35,5.33 -8.57,7.75 -13.91,5.41l-49.79,-21.89c-4,-1.5 -6.84,-5.37 -6.84,-9.89l0,-71.19zm73.32,158.9c-8.49,4.35 -7.37,16.83 1.8,19.56c2.65,0.76 5.29,0.52 7.76,-0.71c6.81,-3.43 13.36,-7.45 19.49,-11.99c3,-2.23 4.55,-5.75 4.23,-9.47c-0.82,-8.21 -10.17,-12.38 -16.82,-7.49a113.63,113.63 0 0 1 -16.46,10.1zm43.09,-37.86c-4.81,7.17 0.6,16.82 9.25,16.45c3.37,-0.19 6.39,-1.84 8.3,-4.67c4.27,-6.35 7.97,-13 11.14,-19.97c3.05,-6.87 -1.71,-14.58 -9.24,-14.91c-4.32,-0.14 -8.23,2.27 -10.01,6.21c-2.69,5.91 -5.81,11.51 -9.44,16.89zm19.42,-54.18c-0.38,4.15 1.62,8.04 5.21,10.14c6.74,3.84 15.04,-0.46 15.82,-8.14c0.73,-7.63 0.84,-15.19 0.32,-22.85c-0.26,-3.67 -2.4,-6.91 -5.65,-8.62c-7.33,-3.8 -16.01,1.88 -15.43,10.11c0.44,6.49 0.34,12.88 -0.27,19.36zm-8.76,-56.81c2.37,5.44 8.73,7.91 14.14,5.41c5.2,-2.4 7.53,-8.5 5.28,-13.76a138.74,138.74 0 0 0 -10.72,-20.19c-5.18,-7.96 -17.37,-5.64 -19.25,3.67c-0.52,2.74 -0.03,5.41 1.49,7.77c3.5,5.46 6.53,11.13 9.06,17.1zm-55.96,-287.52l73.08,68.45l-73.08,0l0,-68.45zm113.71,81.86c0,-5.54 -4.11,-10.56 -8.86,-15.34l-107.64,-104.8c-2.22,-2.78 -5.64,-4.48 -9.38,-4.48l-175.25,0c-12.1,0 -21.87,9.76 -21.87,21.86l0,282.71c6.47,-13.52 14.71,-26.09 24.43,-37.41l0,-242.85l160.42,0l0,99.06c0,6.72 5.45,12.26 12.27,12.26l101.46,0l0,136.02c11.77,8.79 18.13,22.74 24.42,35.54l0,-182.57zm-251.06,-26.71l66.28,0c12.01,0 11.86,19.83 0,19.83l-66.28,0c-12.02,0 -11.9,-19.83 0,-19.83z" fill-rule="nonzero"/>
 </g>
</svg>